<svg width="101" height="101" viewBox="0 0 101 101" fill="none" xmlns="http://www.w3.org/2000/svg">
<path fill-rule="evenodd" clip-rule="evenodd" d="M77.7313 4.59357C77.7484 4.41956 77.7506 4.41119 77.7817 4.39725C77.7913 4.39279 77.8021 4.38944 77.8058 4.38889C77.8208 4.38889 77.8503 4.40729 77.8578 4.42179C77.8616 4.43016 77.8702 4.48983 77.8766 4.5562C77.8927 4.72464 77.9126 4.90646 77.9254 5.00796C77.9845 5.47645 78.0644 5.75922 78.1947 5.96168C78.39 6.26564 78.7247 6.42292 79.3411 6.49988C79.4985 6.51921 79.5205 6.52181 79.5339 6.53393C79.5364 6.53615 79.5385 6.53869 79.5412 6.54171C79.5664 6.57072 79.5573 6.61756 79.523 6.63708C79.5171 6.63987 79.4709 6.64768 79.42 6.65382C79.1249 6.6884 78.8985 6.74138 78.7178 6.81835C78.3685 6.96614 78.1663 7.20987 78.0461 7.62761C77.9796 7.86018 77.9319 8.1608 77.882 8.66944C77.8729 8.76147 77.8638 8.84234 77.8621 8.84959C77.8546 8.88138 77.8106 8.89867 77.7779 8.88305C77.75 8.87023 77.7479 8.86019 77.7286 8.66219C77.6497 7.85516 77.565 7.49654 77.389 7.22158C77.1809 6.89643 76.8252 6.72799 76.1901 6.65326C76.0855 6.64099 76.0726 6.63653 76.0602 6.60585C76.0511 6.58187 76.0554 6.55733 76.0726 6.53892L76.0729 6.53859C76.0898 6.52163 76.0898 6.52157 76.1815 6.51104C77.1256 6.4034 77.4609 6.1513 77.6159 5.43239C77.6588 5.2344 77.6921 4.99458 77.7313 4.59357ZM48.8296 9.33782C49.6732 8.24127 51.3267 8.24127 52.1703 9.33782C52.9319 10.3277 54.3824 10.4419 55.2894 9.5833C56.2941 8.63222 57.9272 8.89088 58.5889 10.1059C59.1862 11.2027 60.601 11.5424 61.6312 10.8363C62.7724 10.0541 64.3449 10.565 64.8084 11.8686C65.2268 13.0454 66.571 13.6022 67.6989 13.0659C68.9484 12.4719 70.4216 13.2225 70.6755 14.5825C70.9046 15.8103 72.1452 16.5705 73.3432 16.2173C74.6702 15.826 76.0079 16.7979 76.0458 18.1809C76.0801 19.4294 77.1865 20.3743 78.4249 20.2128C79.7968 20.034 80.966 21.2032 80.7871 22.5751C80.6257 23.8135 81.5706 24.9199 82.8191 24.9542C84.2021 24.9921 85.1739 26.3298 84.7827 27.6568C84.4295 28.8548 85.1897 30.0953 86.4174 30.3245C87.7774 30.5783 88.5281 32.0516 87.9341 33.301C87.3978 34.429 87.9546 35.7732 89.1314 36.1916C90.4349 36.6551 90.9459 38.2276 90.1637 39.3688C89.4576 40.3989 89.7972 41.8137 90.8941 42.411C92.1091 43.0727 92.3678 44.7058 91.4167 45.7106C90.5581 46.6176 90.6723 48.0681 91.6621 48.8297C92.7587 49.6733 92.7587 51.3267 91.6621 52.1703C90.6723 52.9319 90.5581 54.3824 91.4167 55.2894C92.3678 56.2942 92.1091 57.9273 90.8941 58.589C89.7972 59.1863 89.4576 60.6011 90.1637 61.6312C90.9459 62.7724 90.4349 64.3449 89.1314 64.8084C87.9546 65.2268 87.3978 66.571 87.9341 67.699C88.5281 68.9484 87.7774 70.4217 86.4174 70.6755C85.1897 70.9047 84.4295 72.1452 84.7827 73.3432C85.1739 74.6702 84.2021 76.0079 82.8191 76.0459C81.5706 76.0801 80.6257 77.1865 80.7871 78.4249C80.966 79.7968 79.7968 80.966 78.4249 80.7872C77.1865 80.6257 76.0801 81.5706 76.0458 82.8191C76.0079 84.2021 74.6702 85.174 73.3432 84.7827C72.1452 84.4295 70.9046 85.1897 70.6755 86.4175C70.4216 87.7775 68.9484 88.5281 67.6989 87.9341C66.571 87.3978 65.2268 87.9546 64.8084 89.1314C64.3449 90.435 62.7724 90.9459 61.6312 90.1637C60.601 89.4576 59.1862 89.7973 58.5889 90.8941C57.9272 92.1091 56.2941 92.3678 55.2894 91.4167C54.3824 90.5581 52.9319 90.6723 52.1703 91.6622C51.3267 92.7587 49.6732 92.7587 48.8296 91.6622C48.0681 90.6723 46.6176 90.5581 45.7106 91.4167C44.7058 92.3678 43.0727 92.1091 42.411 90.8941C41.8137 89.7973 40.3989 89.4576 39.3687 90.1637C38.2276 90.9459 36.655 90.435 36.1916 89.1314C35.7732 87.9546 34.429 87.3978 33.301 87.9341C32.0515 88.5281 30.5783 87.7775 30.3245 86.4175C30.0953 85.1897 28.8547 84.4295 27.6568 84.7827C26.3298 85.174 24.9921 84.2021 24.9541 82.8191C24.9199 81.5706 23.8135 80.6257 22.575 80.7872C21.2031 80.966 20.034 79.7969 20.2128 78.4249C20.3743 77.1865 19.4293 76.0801 18.1809 76.0459C16.7979 76.0079 15.826 74.6702 16.2173 73.3432C16.5705 72.1452 15.8103 70.9047 14.5825 70.6755C13.2225 70.4217 12.4718 68.9484 13.0659 67.699C13.6021 66.571 13.0454 65.2268 11.8686 64.8084C10.565 64.3449 10.0541 62.7724 10.8363 61.6312C11.5424 60.6011 11.2027 59.1863 10.1059 58.589C8.89085 57.9273 8.63219 56.2942 9.58327 55.2894C10.4418 54.3824 10.3277 52.9319 9.33779 52.1703C8.24124 51.3267 8.24124 49.6733 9.33779 48.8297C10.3277 48.0681 10.4418 46.6176 9.58327 45.7106C8.63219 44.7058 8.89085 43.0727 10.1059 42.411C11.2027 41.8137 11.5424 40.3989 10.8363 39.3688C10.0541 38.2276 10.565 36.6551 11.8686 36.1916C13.0454 35.7732 13.6021 34.429 13.0659 33.301C12.4718 32.0516 13.2225 30.5783 14.5825 30.3245C15.8103 30.0953 16.5705 28.8548 16.2173 27.6568C15.826 26.3298 16.7979 24.9921 18.1809 24.9542C19.4293 24.9199 20.3743 23.8135 20.2128 22.5751C20.034 21.2032 21.2031 20.034 22.575 20.2128C23.8135 20.3743 24.9199 19.4294 24.9541 18.1809C24.9921 16.7979 26.3298 15.826 27.6568 16.2173C28.8547 16.5705 30.0953 15.8103 30.3245 14.5825C30.5783 13.2225 32.0515 12.4719 33.301 13.0659C34.429 13.6022 35.7732 13.0454 36.1916 11.8686C36.655 10.565 38.2276 10.0541 39.3687 10.8363C40.3989 11.5424 41.8137 11.2027 42.411 10.1059C43.0727 8.89088 44.7058 8.63222 45.7106 9.5833C46.6176 10.4419 48.0681 10.3277 48.8296 9.33782ZM69.6601 38.7344C70.7761 39.7109 70.7761 41.2969 69.6601 42.2734L46.8029 62.2734C45.6869 63.25 43.8744 63.25 42.7583 62.2734L31.3297 52.2734C30.2136 51.2969 30.2136 49.7109 31.3297 48.7344C32.4458 47.7578 34.2583 47.7578 35.3744 48.7344L44.7851 56.9609L65.6244 38.7344C66.7404 37.7578 68.5529 37.7578 69.669 38.7344H69.6601ZM89.612 19.3639C89.6439 19.0545 89.6478 19.0397 89.7056 19.0149C89.7235 19.0069 89.7435 19.001 89.7505 19C89.7783 19 89.8331 19.0327 89.8471 19.0585C89.8541 19.0734 89.87 19.1795 89.882 19.2974C89.9118 19.5969 89.9487 19.9201 89.9726 20.1006C90.0822 20.9334 90.2306 21.4361 90.4727 21.7961C90.8354 22.3364 91.457 22.616 92.6017 22.7529L92.6112 22.754L92.6113 22.754C92.896 22.7875 92.9355 22.7921 92.9601 22.8137C92.9645 22.8176 92.9685 22.822 92.9733 22.8272C93.0201 22.8788 93.0032 22.9621 92.9394 22.9968C92.9285 23.0017 92.8428 23.0156 92.7481 23.0265C92.2002 23.088 91.7798 23.1822 91.4441 23.319C90.7955 23.5818 90.4199 24.0151 90.1968 24.7577C90.0732 25.1712 89.9846 25.7056 89.8919 26.6099C89.875 26.7735 89.858 26.9172 89.8551 26.9301C89.8411 26.9866 89.7594 27.0174 89.6986 26.9896C89.6468 26.9668 89.6429 26.949 89.607 26.597C89.4605 25.1623 89.3031 24.5247 88.9764 24.0359C88.5898 23.4578 87.9293 23.1584 86.7498 23.0255C86.5555 23.0037 86.5316 22.9958 86.5087 22.9413C86.4917 22.8986 86.4997 22.855 86.5316 22.8223L86.5322 22.8217C86.5635 22.7915 86.5636 22.7914 86.7338 22.7727C88.4872 22.5813 89.1099 22.1332 89.3978 20.8551C89.4775 20.5031 89.5392 20.0768 89.612 19.3639ZM87.4103 81.0659C87.3658 81.0831 87.3628 81.0934 87.3382 81.3083C87.2823 81.8033 87.2348 82.0994 87.1735 82.3438C86.952 83.2314 86.473 83.5426 85.1243 83.6755C84.9933 83.6885 84.9932 83.6886 84.9692 83.7095L84.9687 83.7099C84.9442 83.7327 84.9381 83.7629 84.9511 83.7926C84.9687 83.8304 84.9871 83.8359 85.1365 83.8511C86.0439 83.9433 86.552 84.1513 86.8493 84.5527C87.1007 84.8922 87.2218 85.3349 87.3344 86.3312C87.362 86.5757 87.3651 86.5881 87.4049 86.6039C87.4517 86.6232 87.5145 86.6018 87.5252 86.5626C87.5275 86.5536 87.5406 86.4538 87.5536 86.3402C87.6249 85.7122 87.6931 85.3411 87.7881 85.054C87.9597 84.5383 88.2487 84.2374 88.7475 84.0549C89.0058 83.9599 89.3292 83.8945 89.7507 83.8518C89.8235 83.8442 89.8894 83.8346 89.8978 83.8311C89.9469 83.807 89.9599 83.7492 89.9239 83.7134L89.9227 83.7122C89.9197 83.7092 89.9171 83.7067 89.9142 83.7044C89.8953 83.689 89.8664 83.686 89.645 83.6625L89.638 83.6617C88.7575 83.5667 88.2793 83.3725 88.0004 82.9973C87.8141 82.7473 87.7 82.3982 87.6157 81.8199C87.5973 81.6945 87.5689 81.4701 87.5459 81.2621C87.5367 81.1802 87.5245 81.1065 87.5191 81.0962C87.5084 81.0783 87.4662 81.0556 87.4448 81.0556C87.4432 81.0558 87.4409 81.0562 87.438 81.0569C87.4308 81.0587 87.4201 81.062 87.4103 81.0659ZM21.0907 84.4321C21.1275 84.0647 21.1321 84.0471 21.1988 84.0176C21.2195 84.0082 21.2425 84.0012 21.2505 84C21.2827 84 21.3459 84.0388 21.362 84.0695C21.3701 84.0871 21.3885 84.2131 21.4023 84.3532C21.4367 84.7088 21.4793 85.0926 21.5069 85.3069C21.6333 86.296 21.8046 86.8929 22.0839 87.3203C22.5023 87.962 23.2196 88.2941 24.5404 88.4565L24.5516 88.4579L24.5517 88.4579C24.8791 88.4975 24.9253 88.5031 24.9537 88.5285C24.9589 88.5332 24.9636 88.5385 24.9692 88.5448C25.0232 88.6061 25.0037 88.705 24.9301 88.7462C24.9175 88.7521 24.8186 88.7686 24.7094 88.7815C24.0772 88.8545 23.5921 88.9664 23.2047 89.1288C22.4564 89.4409 22.023 89.9554 21.7655 90.8373C21.623 91.3283 21.5207 91.9629 21.4138 93.0367C21.3942 93.231 21.3747 93.4017 21.3712 93.417C21.3551 93.4841 21.2609 93.5206 21.1908 93.4877C21.131 93.4606 21.1264 93.4394 21.085 93.0214C20.916 91.3177 20.7344 90.5606 20.3574 89.9801C19.9113 89.2937 19.1492 88.9381 17.7882 88.7803C17.564 88.7544 17.5365 88.745 17.51 88.6802C17.4905 88.6296 17.4997 88.5778 17.5365 88.539L17.5372 88.5382C17.5732 88.5025 17.5734 88.5023 17.7698 88.4801C19.7929 88.2528 20.5114 87.7206 20.8436 86.2029C20.9356 85.785 21.0068 85.2787 21.0907 84.4321ZM14.9659 13.0111C14.9214 13.0297 14.9184 13.0409 14.8938 13.2729C14.8379 13.8076 14.7904 14.1273 14.7291 14.3913C14.5076 15.3499 14.0286 15.686 12.6799 15.8295C12.5489 15.8436 12.5488 15.8437 12.5248 15.8663L12.5243 15.8667C12.4998 15.8912 12.4936 15.924 12.5067 15.9559C12.5243 15.9968 12.5427 16.0028 12.6921 16.0192C13.5995 16.1188 14.1076 16.3434 14.4049 16.7769C14.6563 17.1435 14.7773 17.6217 14.89 18.6977C14.9176 18.9617 14.9207 18.9751 14.9605 18.9922C15.0072 19.013 15.0701 18.99 15.0808 18.9476C15.0831 18.9379 15.0961 18.8301 15.1092 18.7074C15.1804 18.0292 15.2486 17.6284 15.3437 17.3183C15.5153 16.7613 15.8042 16.4363 16.3031 16.2393C16.5614 16.1366 16.8848 16.066 17.3063 16.0199C17.3791 16.0117 17.445 16.0013 17.4534 15.9976C17.5025 15.9716 17.5155 15.9091 17.4795 15.8704L17.4783 15.8692C17.4752 15.8658 17.4724 15.8629 17.4694 15.8604C17.4505 15.8441 17.4205 15.8407 17.2009 15.8155L17.1936 15.8147C16.3131 15.712 15.8349 15.5023 15.5559 15.097C15.3697 14.8271 15.2555 14.4501 15.1712 13.8254C15.1529 13.6901 15.1245 13.4477 15.1015 13.2231C15.0923 13.1346 15.0801 13.055 15.0747 13.0439C15.064 13.0245 15.0218 13 15.0004 13C14.995 13.0007 14.9797 13.0052 14.9659 13.0111Z" fill="#7373C9"/>
</svg>
